<?xml version="1.0" encoding="UTF-8" standalone="no"?>
<svg
   xmlns:dc="http://purl.org/dc/elements/1.1/"
   xmlns:cc="http://creativecommons.org/ns#"
   xmlns:rdf="http://www.w3.org/1999/02/22-rdf-syntax-ns#"
   xmlns:svg="http://www.w3.org/2000/svg"
   xmlns="http://www.w3.org/2000/svg"
   xmlns:sodipodi="http://sodipodi.sourceforge.net/DTD/sodipodi-0.dtd"
   xmlns:inkscape="http://www.inkscape.org/namespaces/inkscape"
   viewBox="0 0 2000 3000"
   version="1.1"
   id="svg54"
   sodipodi:docname="vertical.svg"
   inkscape:version="0.92.4 (5da689c313, 2019-01-14)"
   width="2000"
   height="3000">
  <metadata
     id="metadata58">
    <rdf:RDF>
      <cc:Work
         rdf:about="">
        <dc:format>image/svg+xml</dc:format>
        <dc:type
           rdf:resource="http://purl.org/dc/dcmitype/StillImage" />
        <dc:title>groovybackground_grey3</dc:title>
      </cc:Work>
    </rdf:RDF>
  </metadata>
  <sodipodi:namedview
     pagecolor="#ffffff"
     bordercolor="#666666"
     borderopacity="1"
     objecttolerance="10"
     gridtolerance="10"
     guidetolerance="10"
     inkscape:pageopacity="0"
     inkscape:pageshadow="2"
     inkscape:window-width="1920"
     inkscape:window-height="1147"
     id="namedview56"
     showgrid="false"
     inkscape:zoom="0.25000001"
     inkscape:cx="605.91643"
     inkscape:cy="1250.4467"
     inkscape:window-x="-8"
     inkscape:window-y="22"
     inkscape:window-maximized="1"
     inkscape:current-layer="svg54" />
  <defs
     id="defs4">
    <style
       id="style2">.cls-1{fill:#36393f;}.cls-2{fill:#494951;}.cls-3,.cls-4,.cls-5,.cls-6{fill:none;stroke-linecap:round;stroke-linejoin:round;stroke-width:20px;}.cls-3,.cls-4,.cls-5{stroke:#6a6c6d;}.cls-4{stroke-dasharray:140.05 140.05 112.04 93.37 186.74 140.05;}.cls-5{stroke-dasharray:93.37 186.74 140.05 140.05 112.04 93.37;}.cls-6{stroke:#494951;stroke-dasharray:100 200 150 150 120;}</style>
  </defs>
  <title
     id="title6">groovybackground_grey3</title>
  <g
     id="Layer_1"
     data-name="Layer 1"
     transform="matrix(1.0416667,0,0,2.7777778,-407.28627,-1590.6351)"
     style="stroke-width:0.58787751">
    <rect
       class="cls-1"
       x="391"
       y="572.63"
       width="1920"
       height="1080"
       id="rect8"
       style="fill:#36393f;stroke-width:0.36384752" />
  </g>
  <path
     style="fill:#494951;stroke-width:1"
     inkscape:connector-curvature="0"
     id="path11"
     d="m 300.48288,1230.3656 a 24.035782,24.035782 0 0 1 -35.28876,-24.9641 1.5170387,1.5170387 0 0 0 -1.15215,-1.741 l -45.94001,-10.4272 a 1.5234396,1.5234396 0 0 0 -1.82431,1.1842 74.149262,74.149262 0 0 0 110.83986,78.4315 1.5234396,1.5234396 0 0 0 0.50563,-2.1123 l -25.11111,-39.8527 a 1.5170387,1.5170387 0 0 0 -2.02915,-0.5184 z m -11.57942,-95.1959 a 73.758806,73.758806 0 0 0 -38.20759,10.5938 1.5170387,1.5170387 0 0 0 -0.49929,2.1123 l 25.11117,39.8462 a 1.5106376,1.5106376 0 0 0 2.00351,0.5313 24.035782,24.035782 0 0 1 35.62158,21.0529 24.125395,24.125395 0 0 1 -0.32003,3.9303 1.5106376,1.5106376 0 0 0 1.165,1.7154 l 45.93362,10.4208 a 1.5234396,1.5234396 0 0 0 1.83069,-1.1777 74.194074,74.194074 0 0 0 -72.63866,-89.0253 z m -53.51242,25.0792 34.71267,31.8258 a 1.5234396,1.5234396 0 0 0 2.08031,0 v 0 a 1.5170387,1.5170387 0 0 0 0.0961,-2.0803 l -30.64164,-35.8072 a 1.5234396,1.5234396 0 0 0 -2.16997,-0.1409 q -2.15713,1.9203 -4.17342,4.0326 a 1.5170387,1.5170387 0 0 0 0.096,2.17 z m 70.25745,66.3208 v 0 a 1.5170387,1.5170387 0 0 0 -0.096,2.0803 l 30.64803,35.7561 a 1.5234396,1.5234396 0 0 0 2.16992,0.1408 c 1.44025,-1.2802 2.83568,-2.6309 4.16708,-4.0326 a 1.5170387,1.5170387 0 0 0 -0.0704,-2.17 l -34.71267,-31.8258 a 1.5170387,1.5170387 0 0 0 -2.10595,0.051 z"
     class="cls-2" />
  <path
     style="fill:#494951;stroke-width:1"
     inkscape:connector-curvature="0"
     id="path13"
     d="m 1592.4309,2771.4447 a 26.026177,26.026177 0 0 1 -38.5264,-21.885 27.128464,27.128464 0 0 1 0.329,-5.1363 1.6228087,1.6228087 0 0 0 -1.2553,-1.8602 l -49.7559,-11.283 a 1.645773,1.645773 0 0 0 -1.9749,1.2783 80.252488,80.252488 0 0 0 119.9577,84.8836 1.645773,1.645773 0 0 0 0.5434,-2.2964 l -27.1743,-43.1269 a 1.645773,1.645773 0 0 0 -2.1433,-0.5741 z M 1579.9,2668.4193 a 79.908021,79.908021 0 0 0 -41.3357,11.4821 1.6534278,1.6534278 0 0 0 -0.5434,2.2964 l 27.182,43.1346 a 1.6304636,1.6304636 0 0 0 2.1662,0.5664 26.026177,26.026177 0 0 1 38.205,27.0443 1.6381183,1.6381183 0 0 0 1.263,1.8525 l 49.7559,11.2831 a 1.645773,1.645773 0 0 0 1.975,-1.2784 80.290763,80.290763 0 0 0 -78.668,-96.381 z m -57.9159,27.1438 37.5696,34.4464 a 1.6381183,1.6381183 0 0 0 2.2504,0 v 0 a 1.6381183,1.6381183 0 0 0 0.1073,-2.2505 l -33.1758,-38.7561 a 1.645773,1.645773 0 0 0 -2.35,-0.1531 q -2.3424,2.0897 -4.5163,4.3632 a 1.645773,1.645773 0 0 0 0.1148,2.3501 z m 76.0041,71.7786 v 0 a 1.6381183,1.6381183 0 0 0 -0.1,2.2429 l 33.1682,38.7024 a 1.645773,1.645773 0 0 0 2.35,0.1531 q 2.3423,-2.0897 4.5086,-4.3632 a 1.645773,1.645773 0 0 0 -0.077,-2.35 l -37.5696,-34.4465 a 1.6534278,1.6534278 0 0 0 -2.2811,0.061 z"
     class="cls-2" />
  <path
     style="fill:#494951;stroke-width:1"
     inkscape:connector-curvature="0"
     id="path15"
     d="m 1488.9607,1742.6393 7.8622,130.6475 a 16.69635,16.69635 0 0 1 -11.5717,16.9037 l -16.3104,5.4034 a 8.6340711,8.6340711 0 0 1 -11.2572,-7.7049 l -0.7933,-13.2584 a 14.652191,14.652191 0 0 1 9.8777,-14.7738 l 8.6269,-3.6952 a 14.652191,14.652191 0 0 0 9.8706,-14.7451 l -3.2306,-53.8843 a 14.659338,14.659338 0 0 0 -19.3552,-12.994 l -40.9832,14.9095 a 14.666486,14.666486 0 0 0 -9.9064,14.7595 l 5.7179,95.9396 a 16.703498,16.703498 0 0 1 -11.5358,16.8894 l -16.2819,5.3748 a 8.6340711,8.6340711 0 0 1 -11.2499,-7.7049 l -0.8005,-13.2585 a 14.666486,14.666486 0 0 1 9.8776,-14.7451 l 8.6197,-3.688 a 14.659338,14.659338 0 0 0 9.8778,-14.7451 l -5.7894,-96.5972 a 14.645044,14.645044 0 0 1 10.0063,-14.7881 l 59.924,-19.4624 7.4404,-2.4658 a 8.6340711,8.6340711 0 0 1 11.3644,7.6834 z"
     class="cls-2" />
  <path
     style="fill:#494951;stroke-width:0.99999994"
     inkscape:connector-curvature="0"
     id="path17"
     d="m 318.10486,211.74891 -27.48133,119.61763 a 15.657677,15.657677 0 0 1 -14.88686,12.14547 l -16.08663,0.5295 a 8.0969493,8.0969493 0 0 1 -8.08357,-9.91343 l 2.78835,-12.13197 a 13.75409,13.75409 0 0 1 12.78894,-10.65071 l 8.71359,-1.04563 a 13.733982,13.733982 0 0 0 12.78888,-10.65071 l 11.34786,-49.33241 a 13.740684,13.740684 0 0 0 -13.96863,-16.8106 l -40.81993,2.57393 a 13.740684,13.740684 0 0 0 -12.81568,10.65064 l -20.20882,87.83315 a 15.66438,15.66438 0 0 1 -14.88692,12.14541 l -16.08663,0.52957 a 8.1036521,8.1036521 0 0 1 -8.09022,-9.91344 l 2.80172,-12.13869 a 13.733982,13.733982 0 0 1 12.78894,-10.64399 l 8.71359,-1.04563 a 13.747387,13.747387 0 0 0 12.78887,-10.65071 l 20.3496,-88.47661 a 13.733982,13.733982 0 0 1 12.92299,-10.65071 l 59.11844,-1.62876 7.37304,-0.24801 a 8.0969493,8.0969493 0 0 1 8.13041,9.90671 z"
     class="cls-2" />
  <circle
     style="fill:#494951;stroke-width:1"
     id="circle19"
     r="94.559372"
     cy="2318.8792"
     cx="660.42822"
     class="cls-2" />
  <circle
     style="fill:#494951;stroke-width:1"
     id="circle21"
     r="50.904041"
     cy="2292.147"
     cx="466.65909"
     class="cls-2" />
  <circle
     style="fill:#494951;stroke-width:1"
     id="circle23"
     r="27.585405"
     cy="2367.9421"
     cx="359.97055"
     class="cls-2" />
  <circle
     style="fill:#494951;stroke-width:1"
     id="circle25"
     r="12.407199"
     cy="2353.7227"
     cx="255.71756"
     class="cls-2" />
  <circle
     style="fill:#494951;stroke-width:1"
     id="circle27"
     r="117.64052"
     cy="2252.3003"
     cx="5050.0337"
     class="cls-2" />
  <circle
     style="fill:#494951;stroke-width:1"
     id="circle29"
     r="63.336487"
     cy="2261.1008"
     cx="5293.228"
     class="cls-2" />
  <circle
     style="fill:#494951;stroke-width:1"
     id="circle31"
     r="34.315231"
     cy="2376.8586"
     cx="5407.7036"
     class="cls-2" />
  <circle
     style="fill:#494951;stroke-width:1"
     id="circle33"
     r="15.445266"
     cy="2381.8115"
     cx="5538.5107"
     class="cls-2" />
  <path
     style="fill:#494951;stroke-width:0.99999994"
     inkscape:connector-curvature="0"
     id="path35"
     d="m 4919.6626,1135.961 -84.0275,218.4183 a 34.091753,34.091753 0 0 0 37.1312,45.9141 l 231.1305,-36.4377 a 34.10331,34.10331 0 0 0 21.2293,-55.1247 l -147.1378,-181.969 a 34.091753,34.091753 0 0 0 -58.3257,9.2452 l -84.0275,218.4183 a 34.091753,34.091753 0 0 0 37.1312,45.9141 l 231.1305,-36.4377 a 34.10331,34.10331 0 0 0 21.2293,-55.1709 l -147.1378,-181.969 a 34.091753,34.091753 0 0 0 -58.3257,9.199 z"
     class="cls-2" />
  <path
     style="fill:#494951;stroke-width:1"
     inkscape:connector-curvature="0"
     id="path37"
     d="m 915.7075,501.99154 39.85439,-103.64239 a 16.170136,16.170136 0 0 0 -17.60967,-21.77447 l -109.64025,17.27373 a 16.170136,16.170136 0 0 0 -10.05712,26.14088 l 69.78589,86.35909 a 16.170136,16.170136 0 0 0 27.66676,-4.35684 l 39.85439,-103.64239 a 16.170136,16.170136 0 0 0 -17.60967,-21.77447 l -109.64025,17.27373 a 16.170136,16.170136 0 0 0 -10.05712,26.14088 l 69.78589,86.35909 a 16.170136,16.170136 0 0 0 27.66676,-4.35684 z"
     class="cls-2" />
  <path
     style="fill:#494951;stroke-width:1"
     inkscape:connector-curvature="0"
     id="path39"
     d="m 1162.2613,396.74652 8.7713,-22.79171 a 3.560309,3.560309 0 0 0 -3.8387,-4.79825 l -24.1159,3.83862 a 3.560309,3.560309 0 0 0 -2.2169,5.75789 l 15.3544,18.99149 a 3.560309,3.560309 0 0 0 6.0842,-0.95963 l 8.7713,-22.79171 a 3.560309,3.560309 0 0 0 -3.8386,-4.79832 l -24.1161,3.83861 a 3.560309,3.560309 0 0 0 -2.2168,5.75796 l 15.3545,18.9915 a 3.560309,3.560309 0 0 0 6.0073,-1.03645 z"
     class="cls-2" />
  <path
     style="fill:#494951;stroke-width:1"
     inkscape:connector-curvature="0"
     id="path41"
     d="m 1044.4162,450.68857 -22.2831,57.92463 a 9.0399214,9.0399214 0 0 0 9.846,12.13 l 61.3025,-9.66374 a 9.0399214,9.0399214 0 0 0 5.6235,-14.61546 l -39.0193,-48.26089 a 9.0399214,9.0399214 0 0 0 -15.4696,2.43749 l -22.2831,57.92456 a 9.0399214,9.0399214 0 0 0 9.846,12.17804 l 61.3025,-9.66374 a 9.0399214,9.0399214 0 0 0 5.6235,-14.61546 l -39.0193,-48.26089 a 9.0399214,9.0399214 0 0 0 -15.4696,2.48546 z"
     class="cls-2" />
  <path
     style="fill:none;stroke:#494951;stroke-width:19.99999809px;stroke-linecap:round;stroke-linejoin:round;stroke-dasharray:100.00000138, 200.00000277, 150.00000206, 150.00000206, 120.00000165"
     inkscape:connector-curvature="0"
     id="path51"
     d="m -566.85299,1060.9904 c 429.0934,-383.05027 1106.5196,-360.46307 1504.449,85.2942 397.92939,445.7575 1356.88989,441.5876 1740.99849,98.7045 384.1085,-342.883 916.5028,-259.7053 916.5028,-259.7053"
     class="cls-6" />
  <path
     style="fill:#494951;stroke-width:1"
     inkscape:connector-curvature="0"
     id="path41-3"
     d="m 654.66356,1703.3111 -43.02856,53.9402 a 10.050377,10.050377 0 0 0 6.37388,16.1577 l 68.2243,10.2935 a 10.050377,10.050377 0 0 0 10.85801,-13.6099 l -25.19558,-64.2337 a 10.050377,10.050377 0 0 0 -17.21602,-2.5987 l -43.02848,53.9402 a 10.050377,10.050377 0 0 0 6.35777,16.2086 l 68.2243,10.2935 a 10.050377,10.050377 0 0 0 10.85801,-13.6099 l -25.19558,-64.2337 a 10.050377,10.050377 0 0 0 -17.23205,-2.5478 z"
     class="cls-2" />
  <path
     style="fill:#494951;stroke-width:1"
     inkscape:connector-curvature="0"
     id="path41-7"
     d="m 854.29978,1680.6267 -110.03691,-20.8533 a 16.312987,16.312987 0 0 0 -18.35565,21.3984 l 36.95644,105.7161 a 16.312987,16.312987 0 0 0 27.76477,5.2635 l 73.08055,-84.8625 a 16.312987,16.312987 0 0 0 -9.32397,-26.6778 L 744.3481,1659.7578 a 16.312987,16.312987 0 0 0 -18.44088,21.414 l 36.95644,105.7161 a 16.312987,16.312987 0 0 0 27.76477,5.2635 l 73.08055,-84.8625 a 16.312987,16.312987 0 0 0 -9.4092,-26.6622 z"
     class="cls-2" />
  <path
     class="cls-6"
     d="m -1981.7647,2301.961 c 429.0934,-383.0503 1106.51963,-360.4631 1504.44903,85.2942 397.929378,445.7575 1356.88988,441.5876 1740.99847,98.7045 384.1085,-342.883 916.5028,-259.7053 916.5028,-259.7053"
     id="path837"
     inkscape:connector-curvature="0"
     style="fill:none;stroke:#494951;stroke-width:19.99999809px;stroke-linecap:round;stroke-linejoin:round;stroke-dasharray:100.00000138, 200.00000277, 150.00000206, 150.00000206, 120.00000165" />
  <circle
     class="cls-2"
     cx="-1711.4043"
     cy="82.78727"
     r="89.296028"
     id="circle839"
     style="fill:#494951;stroke-width:0.99999994"
     transform="rotate(-143.07629)" />
  <circle
     class="cls-2"
     cx="-1894.3879"
     cy="57.543053"
     r="48.070629"
     id="circle841"
     style="fill:#494951;stroke-width:0.99999994"
     transform="rotate(-143.07629)" />
  <circle
     class="cls-2"
     cx="-1995.1381"
     cy="129.11934"
     r="26.049952"
     id="circle843"
     style="fill:#494951;stroke-width:0.99999994"
     transform="rotate(-143.07629)" />
  <circle
     class="cls-2"
     cx="-2093.5881"
     cy="115.69128"
     r="11.716593"
     id="circle845"
     style="fill:#494951;stroke-width:0.99999994"
     transform="rotate(-143.07629)" />
  <path
     class="cls-2"
     d="m 1755.9513,397.43545 a 24.035782,24.035782 0 0 1 -35.2888,-24.9641 1.5170387,1.5170387 0 0 0 -1.1521,-1.741 l -45.9401,-10.4272 a 1.5234396,1.5234396 0 0 0 -1.8243,1.1842 74.149262,74.149262 0 0 0 110.8399,78.4315 1.5234396,1.5234396 0 0 0 0.5056,-2.1123 l -25.1111,-39.8527 a 1.5170387,1.5170387 0 0 0 -2.0291,-0.5184 z m -11.5795,-95.1959 a 73.758806,73.758806 0 0 0 -38.2075,10.5938 1.5170387,1.5170387 0 0 0 -0.4993,2.1123 l 25.1111,39.8462 a 1.5106376,1.5106376 0 0 0 2.0035,0.5313 24.035782,24.035782 0 0 1 35.6216,21.0529 24.125395,24.125395 0 0 1 -0.32,3.9303 1.5106376,1.5106376 0 0 0 1.165,1.7154 l 45.9336,10.4208 a 1.5234396,1.5234396 0 0 0 1.8307,-1.1777 74.194074,74.194074 0 0 0 -72.6387,-89.0253 z m -53.5124,25.0792 34.7127,31.8258 a 1.5234396,1.5234396 0 0 0 2.0803,0 v 0 a 1.5170387,1.5170387 0 0 0 0.096,-2.0803 l -30.6416,-35.8072 a 1.5234396,1.5234396 0 0 0 -2.17,-0.1409 q -2.1571,1.9203 -4.1734,4.0326 a 1.5170387,1.5170387 0 0 0 0.096,2.17 z m 70.2575,66.3208 v 0 a 1.5170387,1.5170387 0 0 0 -0.096,2.0803 l 30.648,35.7561 a 1.5234396,1.5234396 0 0 0 2.1699,0.1408 c 1.4403,-1.2802 2.8357,-2.6309 4.1671,-4.0326 a 1.5170387,1.5170387 0 0 0 -0.07,-2.17 l -34.7127,-31.8258 a 1.5170387,1.5170387 0 0 0 -2.1059,0.051 z"
     id="path847"
     inkscape:connector-curvature="0"
     style="fill:#494951;stroke-width:1" />
</svg>
